<svg width="79" height="40" viewBox="0 0 79 40" fill="none" xmlns="http://www.w3.org/2000/svg">
<circle cx="20" cy="20" r="20" transform="rotate(-90 20 20)" fill="#F3F3F3"/>
<path d="M18 16L24 16" stroke="black" stroke-linecap="round"/>
<path d="M16 24L23.2426 16.7574" stroke="black" stroke-linecap="round"/>
<path d="M24 16L24 22" stroke="black" stroke-linecap="round"/>
<!-- <path d="M49.233 25V14.8182H50.4659V19.3523H55.8949V14.8182H57.1278V25H55.8949V20.446H50.4659V25H49.233ZM59.4371 25V17.3636H60.6104V25H59.4371ZM60.0337 16.0909C59.805 16.0909 59.6078 16.013 59.4421 15.8572C59.2797 15.7015 59.1985 15.5142 59.1985 15.2955C59.1985 15.0767 59.2797 14.8894 59.4421 14.7337C59.6078 14.5779 59.805 14.5 60.0337 14.5C60.2624 14.5 60.458 14.5779 60.6204 14.7337C60.7861 14.8894 60.869 15.0767 60.869 15.2955C60.869 15.5142 60.7861 15.7015 60.6204 15.8572C60.458 16.013 60.2624 16.0909 60.0337 16.0909ZM65.6429 25.1591C65.0066 25.1591 64.4448 24.9983 63.9576 24.6768C63.4703 24.352 63.0892 23.8946 62.8141 23.3047C62.539 22.7114 62.4015 22.0104 62.4015 21.2017C62.4015 20.3996 62.539 19.7036 62.8141 19.1136C63.0892 18.5237 63.472 18.0679 63.9625 17.7464C64.4531 17.425 65.0198 17.2642 65.6628 17.2642C66.16 17.2642 66.5527 17.3471 66.8411 17.5128C67.1328 17.6752 67.3548 17.8608 67.5073 18.0696C67.6631 18.2751 67.784 18.4441 67.8702 18.5767H67.9696V14.8182H69.1429V25H68.0094V23.8267H67.8702C67.784 23.9659 67.6614 24.1416 67.5023 24.3537C67.3432 24.5625 67.1162 24.7498 66.8212 24.9155C66.5262 25.0779 66.1335 25.1591 65.6429 25.1591ZM65.802 24.1051C66.2727 24.1051 66.6704 23.9825 66.9952 23.7372C67.32 23.4886 67.5669 23.1456 67.736 22.7081C67.905 22.2673 67.9895 21.7585 67.9895 21.1818C67.9895 20.6117 67.9067 20.1129 67.7409 19.6854C67.5752 19.2545 67.33 18.9197 67.0051 18.6811C66.6803 18.4392 66.2793 18.3182 65.802 18.3182C65.3049 18.3182 64.8906 18.4458 64.5591 18.701C64.231 18.9529 63.9841 19.2959 63.8184 19.7301C63.656 20.161 63.5748 20.6449 63.5748 21.1818C63.5748 21.7254 63.6576 22.2192 63.8233 22.6634C63.9924 23.1042 64.2409 23.4555 64.5691 23.7173C64.9005 23.9759 65.3115 24.1051 65.802 24.1051ZM74.6564 25.1591C73.9206 25.1591 73.2859 24.9967 72.7523 24.6719C72.222 24.3438 71.8127 23.8864 71.5243 23.2997C71.2393 22.7098 71.0968 22.0237 71.0968 21.2415C71.0968 20.4593 71.2393 19.7699 71.5243 19.1733C71.8127 18.5734 72.2137 18.1061 72.7275 17.7713C73.2445 17.4332 73.8477 17.2642 74.5371 17.2642C74.9348 17.2642 75.3276 17.3305 75.7154 17.4631C76.1032 17.5956 76.4561 17.8111 76.7743 18.1094C77.0925 18.4044 77.3461 18.7955 77.535 19.2827C77.7239 19.7699 77.8184 20.3698 77.8184 21.0824V21.5795H71.932V20.5653H76.6252C76.6252 20.1345 76.539 19.75 76.3667 19.4119C76.1976 19.0739 75.9557 18.8071 75.6408 18.6115C75.3292 18.416 74.9614 18.3182 74.5371 18.3182C74.0698 18.3182 73.6654 18.4342 73.324 18.6662C72.986 18.8949 72.7258 19.1932 72.5435 19.5611C72.3612 19.929 72.2701 20.3234 72.2701 20.7443V21.4205C72.2701 21.9972 72.3695 22.486 72.5684 22.8871C72.7705 23.2848 73.0506 23.5881 73.4086 23.7969C73.7665 24.0024 74.1825 24.1051 74.6564 24.1051C74.9647 24.1051 75.2431 24.062 75.4917 23.9759C75.7435 23.8864 75.9606 23.7538 76.1429 23.5781C76.3252 23.3991 76.4661 23.1771 76.5655 22.9119L77.699 23.2301C77.5797 23.6146 77.3792 23.9527 77.0975 24.2443C76.8158 24.5327 76.4677 24.758 76.0534 24.9205C75.6391 25.0795 75.1735 25.1591 74.6564 25.1591Z" fill="#3D8AFF"/> -->
</svg>
